# xmcd
#
# Track frame offsets:
#	150
#	17918
#	33485
#	52350
#	71100
#	89248
#	107546
#	125290
#	140861
#	159654
#	178403
#	196566
#
# Disc length: 2864 seconds
#
# Revision: 2
# Processed by: cddbd v1.5.2PL0 Copyright (c) Steve Scherf et al.
# Submitted via: audiograbber 1.83.01
#
DISCID=b80b2e0c
DTITLE=Carrie Underwood - CB20596
DYEAR=2007
DGENRE=Karaoke
TTITLE0=Carrie Underwood - Jesus Take The Wheel wVocals
TTITLE1=Carrie Underwood - Before He Cheats wVocals
TTITLE2=Carrie Underwood - Don't Forget To Remember Me wVocals
TTITLE3=Carrie Underwood - Inside Your Heaven wVocals
TTITLE4=Carrie Underwood - Some Hearts wVocals
TTITLE5=Carrie Underwood - Were Young And Beautiful wVocals
TTITLE6=Carrie Underwood - Jesus Take The Wheel
TTITLE7=Carrie Underwood - Before He Cheats
TTITLE8=Carrie Underwood - Don't Forget To Remember Me
TTITLE9=Carrie Underwood - Inside Your Heaven
TTITLE10=Carrie Underwood - Some Hearts
TTITLE11=Carrie Underwood - Were Young And Beautiful 
EXTD=Chartbuster
EXTT0=
EXTT1=
EXTT2=
EXTT3=
EXTT4=
EXTT5=
EXTT6=
EXTT7=
EXTT8=
EXTT9=
EXTT10=
EXTT11=
PLAYORDER=
